<svg xmlns="http://www.w3.org/2000/svg" viewBox="0 0 1399.81 852.72"><defs><style>.cls-1{fill:none;stroke:#ff5548;stroke-linecap:round;stroke-miterlimit:10;stroke-width:19.34px;}</style></defs><g id="Layer_2" data-name="Layer 2"><g id="Layer_1-2" data-name="Layer 1"><path d="M643.1,852.72c-2.25,0,2-.23-.23-.22-29.4.22-68.82-11.75-98.84-57.12L379,508.32q-.36-.6-.69-1.2A98.14,98.14,0,0,1,433.63,366C471,353.78,532.92,321.57,528,243.32c-3.06-48.45-22.27-79.33-60.46-97.18-29.86-14-60.39-14.47-60.94-14.47H128.93V787.19c0,35.35-28,64.93-63.37,65.52A64.47,64.47,0,0,1,0,788.25V115.84A113.09,113.09,0,0,1,113.09,2.75H405.34c8.6-.06,61.44.71,116.8,26.6,36.1,16.88,65.75,40.76,88.14,71,27.45,37.05,43.05,82.43,46.37,134.88,4.45,70.56-18.11,133.41-65.26,181.75-21.45,22-45.33,38.16-67,49.82a16.83,16.83,0,0,0-6.59,23.35L618,669.63c10.89,18.54,38.35,16.4,46.23-3.6L909,57.76c.37-.94.77-1.88,1.18-2.81C925.4,21.15,962.8.1,1007.8,0h.31c44.93,0,82.32,20.9,97.65,54.59.35.77.68,1.55,1,2.34L1395,763.43a64.46,64.46,0,1,1-119.37,48.7L1008.42,157.18l-253,618.42c-2.93,7.17-11.54,21.86-15.74,28.37C714.37,843.19,675,852.72,643.1,852.72Zm17-130.49,0,0Zm-1.27-7.87,1.28.11Z"/><line class="cls-1" x1="64.44" y1="785.34" x2="64.44" y2="218.78"/><line class="cls-1" x1="1334.31" y1="782.33" x2="1109.46" y2="218.78"/><path class="cls-1" d="M693.28,750.74c-12.5,19.63-35.89,30-58.61,24.89a45.9,45.9,0,0,1-17.18-7.48c-10.82-8-22.91-24.43-29.47-36.19L445.21,487.35c-5.71-10.14-11-25-9.79-36.57,1.35-12.86,16.17-24.2,32.38-27.45"/><path class="cls-1" d="M958,117.12C940.9,161,768.59,582.24,768.59,582.24"/><path class="cls-1" d="M205,74.33l202.92,2.09c22,.23,54.68,6.17,75.19,13.65,0,0,16.82,5.84,29,13.41,54.67,33.92,83,75.6,82.51,153.13"/></g></g></svg>